<svg width="120" height="120" viewBox="0 0 120 120" fill="none" xmlns="http://www.w3.org/2000/svg">
<path d="M60.0003 60C60.0003 32 40.0003 0 28.0003 0C12.0003 0 10.0003 20 18.0003 36C24.0003 48 44.0003 58 60.0003 60Z" fill="#7AC489"/>
<path d="M60 60C60 32 80 0 92 0C108 0 110 20 102 36C96 48 76 58 60 60Z" fill="#7AC489"/>
<path d="M60 60C88 60 120 40 120 28C120 12 100 10 84 18C72 24 62 44 60 60Z" fill="#7AC489"/>
<path d="M60 60C88 60 120 80 120 92C120 108 100 110 84 102C72 96 62 76 60 60Z" fill="#7AC489"/>
<path d="M59.9997 60C59.9997 88 79.9997 120 91.9997 120C108 120 110 100 102 84C95.9997 72 75.9997 62 59.9997 60Z" fill="#7AC489"/>
<path d="M60 60C60 88 40 120 28 120C12 120 10 100 18 84C24 72 44 62 60 60Z" fill="#7AC489"/>
<path d="M60 60C32 60 0 80 0 92C0 108 20 110 36 102C48 96 58 76 60 60Z" fill="#7AC489"/>
<path d="M60 60C32 60 0 40 0 28C0 12 20 10 36 18C48 24 58 44 60 60Z" fill="#7AC489"/>
</svg>
